<?xml version="1.0" encoding="iso-8859-1"?>
<!-- Generator: Adobe Illustrator 16.0.0, SVG Export Plug-In . SVG Version: 6.00 Build 0)  -->
<!DOCTYPE svg PUBLIC "-//W3C//DTD SVG 1.1//EN" "http://www.w3.org/Graphics/SVG/1.1/DTD/svg11.dtd">
<svg version="1.1" id="Capa_1" xmlns="http://www.w3.org/2000/svg" xmlns:xlink="http://www.w3.org/1999/xlink" x="0px" y="0px"
	 width="93.117px" height="93.117px" viewBox="0 0 93.117 93.117" style="fill: white; enable-background:new 0 0 93.117 93.117;"
	 xml:space="preserve">
<g>
	<g>
		<path d="M88.673,21.303c-0.188-0.567-1.101-1.043-1.602-1.268L47.808,0.351L47.689,0.29c-0.955-0.552-1.898-0.177-2.249-0.002
			C45.045,0.487,6.149,19.943,6.149,19.943c-0.142,0.045-1.383,0.442-1.659,1.472c-0.223,0.82-0.173,1.251-0.166,1.251l0,0
			L4.33,70.533c-0.014,0.084-0.121,0.834,0.305,1.569c0.439,0.761,1.216,1.009,1.222,1.004l39.212,19.601
			c0.064,0.041,0.66,0.41,1.466,0.41h0.037c0.807-0.014,1.407-0.363,1.435-0.381l39.244-19.621c0.255-0.115,0.847-0.406,1.141-0.746
			c0.162-0.144,0.412-0.515,0.412-1.748V22.692C88.809,22.6,88.84,21.804,88.673,21.303z M43.585,85.763L9.874,68.908V27.155
			l33.711,16.856V85.763z M46.566,39.044l-33.065-16.58L46.562,5.937l33.065,16.577L46.566,39.044z M83.253,68.908L49.54,85.763
			V44.012l33.713-16.856V68.908z"/>
	</g>
</g>
<g>
</g>
<g>
</g>
<g>
</g>
<g>
</g>
<g>
</g>
<g>
</g>
<g>
</g>
<g>
</g>
<g>
</g>
<g>
</g>
<g>
</g>
<g>
</g>
<g>
</g>
<g>
</g>
<g>
</g>
</svg>
